REM DIRINDEX 1\2,1\3,1\4
REM DIRNAME cjc153,folder01,folder02,folder03
TITLE ""
FILE "Track17.mp3" MP3
  TRACK 01 AUDIO
    TITLE "0:"
    INDEX 01 00:00:00
  TRACK 02 AUDIO
    TITLE "4:cjc153_1071"
    INDEX 01 00:00:07
  TRACK 03 AUDIO
    TITLE "0:"
    INDEX 01 00:02:02
  TRACK 04 AUDIO
    TITLE "2:cjc153_1072"
    INDEX 01 00:02:61
  TRACK 05 AUDIO
    TITLE "0:"
    INDEX 01 00:03:59
  TRACK 06 AUDIO
    TITLE "3:cjc153_1073"
    INDEX 01 00:04:15
  TRACK 07 AUDIO
    TITLE "0:"
    INDEX 01 00:05:20
  TRACK 08 AUDIO
    TITLE "2:cjc153_1074"
    INDEX 01 00:05:63
  TRACK 09 AUDIO
    TITLE "0:"
    INDEX 01 00:06:65
  TRACK 10 AUDIO
    TITLE "3:cjc153_1075"
    INDEX 01 00:07:21
  TRACK 11 AUDIO
    TITLE "0:"
    INDEX 01 00:08:26
  TRACK 12 AUDIO
    TITLE "2:cjc153_1076"
    INDEX 01 00:08:72
  TRACK 13 AUDIO
    TITLE "0:"
    INDEX 01 00:09:71
  TRACK 14 AUDIO
    TITLE "3:cjc153_1077"
    INDEX 01 00:10:31
  TRACK 15 AUDIO
    TITLE "0:"
    INDEX 01 00:11:33
  TRACK 16 AUDIO
    TITLE "2:cjc153_1078"
    INDEX 01 00:12:05
  TRACK 17 AUDIO
    TITLE "0:"
    INDEX 01 00:13:00
  TRACK 18 AUDIO
    TITLE "3:cjc153_1079"
    INDEX 01 00:13:33
  TRACK 19 AUDIO
    TITLE "0:"
    INDEX 01 00:14:35
  TRACK 20 AUDIO
    TITLE "2:cjc153_1080"
    INDEX 01 00:15:05
  TRACK 21 AUDIO
    TITLE "0:"
    INDEX 01 00:15:72
  TRACK 22 AUDIO
    TITLE "3:cjc153_1081"
    INDEX 01 00:16:28
  TRACK 23 AUDIO
    TITLE "0:"
    INDEX 01 00:17:27
  TRACK 24 AUDIO
    TITLE "2:cjc153_1082"
    INDEX 01 00:18:01
  TRACK 25 AUDIO
    TITLE "0:"
    INDEX 01 00:18:68
  TRACK 26 AUDIO
    TITLE "3:cjc153_1083"
    INDEX 01 00:19:26
  TRACK 27 AUDIO
    TITLE "0:"
    INDEX 01 00:20:20
  TRACK 28 AUDIO
    TITLE "2:cjc153_1084"
    INDEX 01 00:20:63
  TRACK 29 AUDIO
    TITLE "0:"
    INDEX 01 00:21:53
  TRACK 30 AUDIO
    TITLE "3:cjc153_1085"
    INDEX 01 00:22:11
  TRACK 31 AUDIO
    TITLE "0:"
    INDEX 01 00:23:03
  TRACK 32 AUDIO
    TITLE "2:cjc153_1086"
    INDEX 01 00:23:48
  TRACK 33 AUDIO
    TITLE "0:"
    INDEX 01 00:24:35
  TRACK 34 AUDIO
    TITLE "3:cjc153_1087"
    INDEX 01 00:24:69
  TRACK 35 AUDIO
    TITLE "0:"
    INDEX 01 00:25:66
  TRACK 36 AUDIO
    TITLE "2:cjc153_1088"
    INDEX 01 00:26:36
  TRACK 37 AUDIO
    TITLE "0:"
    INDEX 01 00:27:41
  TRACK 38 AUDIO
    TITLE "3:cjc153_1089"
    INDEX 01 00:28:00
  TRACK 39 AUDIO
    TITLE "0:"
    INDEX 01 00:29:15
  TRACK 40 AUDIO
    TITLE "2:cjc153_1090"
    INDEX 01 00:29:58
  TRACK 41 AUDIO
    TITLE "0:"
    INDEX 01 00:30:55
  TRACK 42 AUDIO
    TITLE "3:cjc153_1091"
    INDEX 01 00:31:14
  TRACK 43 AUDIO
    TITLE "0:"
    INDEX 01 00:32:17
  TRACK 44 AUDIO
    TITLE "2:cjc153_1092"
    INDEX 01 00:32:60
  TRACK 45 AUDIO
    TITLE "0:"
    INDEX 01 00:33:66
  TRACK 46 AUDIO
    TITLE "3:cjc153_1093"
    INDEX 01 00:34:24
  TRACK 47 AUDIO
    TITLE "0:"
    INDEX 01 00:35:29
  TRACK 48 AUDIO
    TITLE "2:cjc153_1094"
    INDEX 01 00:36:01
  TRACK 49 AUDIO
    TITLE "0:"
    INDEX 01 00:37:08
  TRACK 50 AUDIO
    TITLE "3:cjc153_1095"
    INDEX 01 00:37:40
  TRACK 51 AUDIO
    TITLE "0:"
    INDEX 01 00:38:59
  TRACK 52 AUDIO
    TITLE "2:cjc153_1096"
    INDEX 01 00:39:29
  TRACK 53 AUDIO
    TITLE "0:"
    INDEX 01 00:40:32
  TRACK 54 AUDIO
    TITLE "3:cjc153_1097"
    INDEX 01 00:40:66
  TRACK 55 AUDIO
    TITLE "0:"
    INDEX 01 00:42:02
  TRACK 56 AUDIO
    TITLE "2:cjc153_1098"
    INDEX 01 00:42:49
  TRACK 57 AUDIO
    TITLE "0:"
    INDEX 01 00:43:54
  TRACK 58 AUDIO
    TITLE "3:cjc153_1099"
    INDEX 01 00:44:11
  TRACK 59 AUDIO
    TITLE "0:"
    INDEX 01 00:45:24
  TRACK 60 AUDIO
    TITLE "2:cjc153_1100"
    INDEX 01 00:45:69
  TRACK 61 AUDIO
    TITLE "0:"
    INDEX 01 00:46:66
  TRACK 62 AUDIO
    TITLE "3:cjc153_1101"
    INDEX 01 00:47:23
  TRACK 63 AUDIO
    TITLE "0:"
    INDEX 01 00:48:26
  TRACK 64 AUDIO
    TITLE "2:cjc153_1102"
    INDEX 01 00:48:71
  TRACK 65 AUDIO
    TITLE "0:"
    INDEX 01 00:49:74
  TRACK 66 AUDIO
    TITLE "3:cjc153_1103"
    INDEX 01 00:50:31
  TRACK 67 AUDIO
    TITLE "0:"
    INDEX 01 00:51:38
  TRACK 68 AUDIO
    TITLE "2:cjc153_1104"
    INDEX 01 00:52:08
  TRACK 69 AUDIO
    TITLE "0:"
    INDEX 01 00:53:09
  TRACK 70 AUDIO
    TITLE "3:cjc153_1105"
    INDEX 01 00:53:43
  TRACK 71 AUDIO
    TITLE "0:"
    INDEX 01 00:54:48
  TRACK 72 AUDIO
    TITLE "2:cjc153_1106"
    INDEX 01 00:55:16
  TRACK 73 AUDIO
    TITLE "0:"
    INDEX 01 00:56:18
  TRACK 74 AUDIO
    TITLE "3:cjc153_1107"
    INDEX 01 00:56:49
  TRACK 75 AUDIO
    TITLE "0:"
    INDEX 01 00:57:48
